<mxfile host="app.diagrams.net" agent="Mozilla/5.0 (Windows NT 10.0; Win64; x64) AppleWebKit/537.36 (KHTML, like Gecko) Chrome/129.0.0.0 Safari/537.36 Edg/129.0.0.0" version="24.7.17">
  <diagram name="Page-1" id="sGFSkTAcOeUki7uHH4tm">
    <mxGraphModel dx="1389" dy="721" grid="1" gridSize="10" guides="1" tooltips="1" connect="1" arrows="1" fold="1" page="1" pageScale="1" pageWidth="827" pageHeight="1169" math="0" shadow="0">
      <root>
        <mxCell id="0" />
        <mxCell id="1" parent="0" />
        <mxCell id="wbHLYphccFhZG1hCxsCP-5" style="edgeStyle=orthogonalEdgeStyle;rounded=0;orthogonalLoop=1;jettySize=auto;html=1;exitX=1;exitY=0.5;exitDx=0;exitDy=0;entryX=0;entryY=0.5;entryDx=0;entryDy=0;dashed=1;dashPattern=8 8;" parent="1" source="wbHLYphccFhZG1hCxsCP-2" target="wbHLYphccFhZG1hCxsCP-3" edge="1">
          <mxGeometry relative="1" as="geometry" />
        </mxCell>
        <mxCell id="wbHLYphccFhZG1hCxsCP-2" value="S2107 Temp sensor" style="rounded=0;whiteSpace=wrap;html=1;" parent="1" vertex="1">
          <mxGeometry x="40" y="190" width="90" height="60" as="geometry" />
        </mxCell>
        <mxCell id="wbHLYphccFhZG1hCxsCP-11" style="edgeStyle=orthogonalEdgeStyle;rounded=0;orthogonalLoop=1;jettySize=auto;html=1;exitX=1;exitY=0.5;exitDx=0;exitDy=0;endArrow=none;endFill=0;startArrow=classic;startFill=1;" parent="1" source="wbHLYphccFhZG1hCxsCP-22" target="wbHLYphccFhZG1hCxsCP-8" edge="1">
          <mxGeometry relative="1" as="geometry" />
        </mxCell>
        <mxCell id="wbHLYphccFhZG1hCxsCP-3" value="Lora Gateway" style="rounded=0;whiteSpace=wrap;html=1;" parent="1" vertex="1">
          <mxGeometry x="270" y="190" width="120" height="60" as="geometry" />
        </mxCell>
        <mxCell id="wbHLYphccFhZG1hCxsCP-7" value="Funk" style="text;html=1;align=center;verticalAlign=middle;whiteSpace=wrap;rounded=0;" parent="1" vertex="1">
          <mxGeometry x="170" y="190" width="60" height="30" as="geometry" />
        </mxCell>
        <mxCell id="wbHLYphccFhZG1hCxsCP-8" value="" style="sketch=0;pointerEvents=1;shadow=0;dashed=0;html=1;strokeColor=none;fillColor=#434445;aspect=fixed;labelPosition=center;verticalLabelPosition=bottom;verticalAlign=top;align=center;outlineConnect=0;shape=mxgraph.vvd.physical_storage;" parent="1" vertex="1">
          <mxGeometry x="970" y="195" width="70.42" height="50" as="geometry" />
        </mxCell>
        <mxCell id="wbHLYphccFhZG1hCxsCP-9" value="" style="sketch=0;pointerEvents=1;shadow=0;dashed=0;html=1;strokeColor=none;fillColor=#434445;aspect=fixed;labelPosition=center;verticalLabelPosition=bottom;verticalAlign=top;align=center;outlineConnect=0;shape=mxgraph.vvd.networking;" parent="1" vertex="1">
          <mxGeometry x="980.21" y="40" width="50" height="50" as="geometry" />
        </mxCell>
        <mxCell id="wbHLYphccFhZG1hCxsCP-10" value="Lokale Wetterantenne" style="sketch=0;pointerEvents=1;shadow=0;dashed=0;html=1;strokeColor=none;fillColor=#434445;aspect=fixed;labelPosition=center;verticalLabelPosition=bottom;verticalAlign=top;align=center;outlineConnect=0;shape=mxgraph.vvd.networking;" parent="1" vertex="1">
          <mxGeometry x="1170" y="195" width="50" height="50" as="geometry" />
        </mxCell>
        <mxCell id="wbHLYphccFhZG1hCxsCP-12" value="" style="endArrow=none;html=1;rounded=0;startArrow=classic;startFill=1;endFill=0;" parent="1" source="wbHLYphccFhZG1hCxsCP-8" target="wbHLYphccFhZG1hCxsCP-9" edge="1">
          <mxGeometry width="50" height="50" relative="1" as="geometry">
            <mxPoint x="980.21" y="170" as="sourcePoint" />
            <mxPoint x="1030" y="120" as="targetPoint" />
          </mxGeometry>
        </mxCell>
        <mxCell id="wbHLYphccFhZG1hCxsCP-13" value="Openapi" style="text;html=1;align=center;verticalAlign=middle;whiteSpace=wrap;rounded=0;" parent="1" vertex="1">
          <mxGeometry x="1030.21" y="50" width="60" height="30" as="geometry" />
        </mxCell>
        <mxCell id="wbHLYphccFhZG1hCxsCP-14" value="" style="endArrow=classic;html=1;rounded=0;" parent="1" source="wbHLYphccFhZG1hCxsCP-10" target="wbHLYphccFhZG1hCxsCP-8" edge="1">
          <mxGeometry width="50" height="50" relative="1" as="geometry">
            <mxPoint x="1090.21" y="220" as="sourcePoint" />
            <mxPoint x="1140.21" y="170" as="targetPoint" />
          </mxGeometry>
        </mxCell>
        <mxCell id="wbHLYphccFhZG1hCxsCP-19" value="GUI" style="swimlane;" parent="1" vertex="1">
          <mxGeometry x="971.9" y="340" width="66.62" height="70" as="geometry" />
        </mxCell>
        <mxCell id="wbHLYphccFhZG1hCxsCP-20" value="" style="endArrow=classic;html=1;rounded=0;entryX=0.5;entryY=0;entryDx=0;entryDy=0;" parent="1" source="wbHLYphccFhZG1hCxsCP-8" target="wbHLYphccFhZG1hCxsCP-19" edge="1">
          <mxGeometry width="50" height="50" relative="1" as="geometry">
            <mxPoint x="970" y="380" as="sourcePoint" />
            <mxPoint x="1020" y="330" as="targetPoint" />
          </mxGeometry>
        </mxCell>
        <mxCell id="wbHLYphccFhZG1hCxsCP-21" value="Backend" style="text;html=1;align=center;verticalAlign=middle;whiteSpace=wrap;rounded=0;" parent="1" vertex="1">
          <mxGeometry x="940" y="245" width="60" height="30" as="geometry" />
        </mxCell>
        <mxCell id="wbHLYphccFhZG1hCxsCP-23" value="" style="edgeStyle=orthogonalEdgeStyle;rounded=0;orthogonalLoop=1;jettySize=auto;html=1;exitX=1;exitY=0.5;exitDx=0;exitDy=0;" parent="1" source="wbHLYphccFhZG1hCxsCP-3" target="wbHLYphccFhZG1hCxsCP-22" edge="1">
          <mxGeometry relative="1" as="geometry">
            <mxPoint x="390" y="220" as="sourcePoint" />
            <mxPoint x="970" y="220" as="targetPoint" />
          </mxGeometry>
        </mxCell>
        <mxCell id="wbHLYphccFhZG1hCxsCP-22" value="Lorawan Network Server" style="rounded=0;whiteSpace=wrap;html=1;" parent="1" vertex="1">
          <mxGeometry x="590" y="190" width="120" height="60" as="geometry" />
        </mxCell>
        <mxCell id="wbHLYphccFhZG1hCxsCP-25" value="Watch" style="text;html=1;align=center;verticalAlign=middle;whiteSpace=wrap;rounded=0;" parent="1" vertex="1">
          <mxGeometry x="810" y="190" width="60" height="30" as="geometry" />
        </mxCell>
        <mxCell id="wbHLYphccFhZG1hCxsCP-26" value="Internet" style="text;html=1;align=center;verticalAlign=middle;whiteSpace=wrap;rounded=0;" parent="1" vertex="1">
          <mxGeometry x="460" y="190" width="60" height="30" as="geometry" />
        </mxCell>
      </root>
    </mxGraphModel>
  </diagram>
</mxfile>
